<svg xmlns="http://www.w3.org/2000/svg" width="806.2" height="598.967" viewBox="0 0 806.2 598.967">
  <g id="Group_93" data-name="Group 93" transform="translate(-589.465 -459)">
    <g id="custom-controller" transform="translate(1145.565 217.9)">
      <g id="Group_81" data-name="Group 81">
        <g id="Group_42" data-name="Group 42">
          <g id="Group_41" data-name="Group 41">
            <g id="Group_40" data-name="Group 40">
              <path id="Path_4" data-name="Path 4" d="M245.3,659.8c-2.9-15.5-17.7-102.5-32-144.6-9.4-27.7-13.1-53-17-64.9-12-35.7-33-65.7-33-65.7s-9.5-13.1-10.1-16.3c-.6-3.3-4.7-8.6-4.7-8.6S131.1,354,86.2,354s-53.7,5-53.7,5a22.515,22.515,0,0,1-5.9,4.8c-3.5,1.8-11.7,1.7-11.7,1.7H-18.5a1.008,1.008,0,0,0-.9.3,5.3,5.3,0,0,0-.6,2H-286.1a7.134,7.134,0,0,0-.6-2,1.061,1.061,0,0,0-.9-.3H-321s-8.2.2-11.7-1.7a20.513,20.513,0,0,1-5.9-4.8s-8.8-5-53.7-5c-44.8,0-62.3,5.7-62.3,5.7s-4.1,5.3-4.7,8.6-10.1,16.3-10.1,16.3-21,30-33,65.7c-4,11.9-7.7,37.2-17,64.9-14.3,42.1-29.1,129.1-32,144.6-4.3,23.2-4.7,90.1-4.7,90.1s4.5,53.4,36.2,74.9,56.7,14,56.7,14,33.1-8.2,57.8-41.9,56.6-129.2,56.6-129.2a24.5,24.5,0,0,1,5.7-5.3,15.791,15.791,0,0,1,6.3-2.6l183.7.1,183.7-.1a15.792,15.792,0,0,1,6.3,2.6,24.5,24.5,0,0,1,5.7,5.3s31.9,95.4,56.6,129.2S157,838.8,157,838.8s25,7.5,56.7-14,36.2-74.9,36.2-74.9S249.7,682.9,245.3,659.8Z" fill="#f5f5f5"/>
              <g id="Group_36" data-name="Group 36">
                <g id="Group_35" data-name="Group 35">
                  <g id="Group_34" data-name="Group 34">
                    <path id="Path_5" data-name="Path 5" d="M-519.4,517.1c9.4-27.7,13.1-53,17-64.9,12-35.7,33-65.7,33-65.7s9.5-13.1,10.1-16.3c.6-3.3,4.7-8.6,4.7-8.6s17.4-5.7,62.3-5.7c44.8,0,53.7,5,53.7,5a22.515,22.515,0,0,0,5.9,4.8c3.5,1.8,11.7,1.7,11.7,1.7h33.4a1.008,1.008,0,0,1,.9.3,5.3,5.3,0,0,1,.6,2H-19.9a7.134,7.134,0,0,1,.6-2,1.061,1.061,0,0,1,.9-.3H15s8.2.2,11.7-1.7a20.514,20.514,0,0,0,5.9-4.8s8.8-5,53.7-5,62.3,5.7,62.3,5.7,4.1,5.3,4.7,8.6,10.1,16.3,10.1,16.3,21,30,33,65.7c4,11.9,7.7,37.2,17,64.9,14.3,42.1,29.1,129.1,32,144.6,3.9,20.9,4.6,77.3,4.7,88.3v-.1s-.3-66.9-4.7-90.1c-2.9-15.5-17.7-102.5-32-144.6-9.4-27.7-13.1-53-17-64.9-12-35.7-33-65.7-33-65.7s-9.5-13.1-10.1-16.3c-.6-3.3-4.7-8.6-4.7-8.6S131.2,354,86.3,354s-53.7,5-53.7,5a22.515,22.515,0,0,1-5.9,4.8c-3.5,1.8-11.7,1.7-11.7,1.7H-18.4a1.008,1.008,0,0,0-.9.3,5.3,5.3,0,0,0-.6,2H-286.1a7.134,7.134,0,0,0-.6-2,1.061,1.061,0,0,0-.9-.3H-321s-8.2.2-11.7-1.7a20.513,20.513,0,0,1-5.9-4.8s-8.8-5-53.7-5c-44.8,0-62.3,5.7-62.3,5.7s-4.1,5.3-4.7,8.6-10.1,16.3-10.1,16.3-21,30-33,65.7c-4,11.9-7.7,37.2-17,64.9-14.3,42.1-29.1,129.1-32,144.6-4.3,23.2-4.7,90.1-4.7,90.1v.1c.1-10.9.7-67.4,4.7-88.3C-548.4,646.3-533.7,559.2-519.4,517.1Z" fill="#cfcfcf"/>
                  </g>
                </g>
              </g>
              <path id="Path_6" data-name="Path 6" d="M-204.8,601.1a76.564,76.564,0,0,0-76.5-76.5,76.564,76.564,0,0,0-76.5,76.5,13.4,13.4,0,0,0,.1,2c0,.7-.1,1.3-.1,2a76.564,76.564,0,0,0,76.5,76.5,76.564,76.564,0,0,0,76.5-76.5,13.4,13.4,0,0,0-.1-2C-204.9,602.4-204.8,601.7-204.8,601.1Z" fill="#cfcfcf"/>
              <circle id="Ellipse_2" data-name="Ellipse 2" cx="73" cy="73" r="73" transform="translate(-354.3 524.1)" fill="#f5f5f5"/>
              <circle id="Ellipse_3" data-name="Ellipse 3" cx="51.5" cy="51.5" r="51.5" transform="translate(-332.8 545.6)"/>
              <path id="Path_7" data-name="Path 7" d="M51.8,601.1a76.564,76.564,0,0,0-76.5-76.5,76.564,76.564,0,0,0-76.5,76.5,13.4,13.4,0,0,0,.1,2c0,.7-.1,1.3-.1,2a76.564,76.564,0,0,0,76.5,76.5,76.564,76.564,0,0,0,76.5-76.5,13.4,13.4,0,0,0-.1-2A14.084,14.084,0,0,0,51.8,601.1Z" fill="#cfcfcf"/>
              <circle id="Ellipse_4" data-name="Ellipse 4" cx="73" cy="73" r="73" transform="translate(-97.7 524.1)" fill="#f5f5f5"/>
              <circle id="Ellipse_5" data-name="Ellipse 5" cx="51.5" cy="51.5" r="51.5" transform="translate(-76.2 545.6)"/>
              <path id="Path_8" data-name="Path 8" d="M-21.2,369.1a6.568,6.568,0,0,0-6.5-5.6H-278.3a6.481,6.481,0,0,0-6.5,5.6,14.768,14.768,0,0,0-.1,2.1V498.6a16.09,16.09,0,0,0,16.1,16.1H-37.2a16.09,16.09,0,0,0,16.1-16.1V371.2A7.412,7.412,0,0,0-21.2,369.1Z" fill="#121212"/>
              <g id="Group_38" data-name="Group 38">
                <path id="Path_9" data-name="Path 9" d="M-25.6,365.4a1.9,1.9,0,0,0-1.9-1.9H-278.6a1.9,1.9,0,0,0-1.9,1.9V494.6a15.62,15.62,0,0,0,15.6,15.6H-41.1a15.62,15.62,0,0,0,15.6-15.6V371.5Z" fill="#080808"/>
                <g id="Group_37" data-name="Group 37" opacity="0.12">
                  <path id="Path_10" data-name="Path 10" d="M-280.5,494.6a15.62,15.62,0,0,0,15.6,15.6H-41.1a15.62,15.62,0,0,0,15.6-15.6V388.1H-280.4V494.6Z"/>
                </g>
              </g>
              <circle id="Ellipse_6" data-name="Ellipse 6" cx="94.3" cy="94.3" r="94.3" transform="translate(2 391.6)" fill="#080808"/>
              <g id="Group_39" data-name="Group 39">
                <circle id="Ellipse_7" data-name="Ellipse 7" cx="94.3" cy="94.3" r="94.3" transform="translate(-496.6 391.6)" fill="#080808"/>
                <path id="Path_11" data-name="Path 11" d="M-325.6,495.2l9.5-8.9a1.151,1.151,0,0,0,0-1.7l-9.5-8.9a1.115,1.115,0,0,0-1.9.8v17.8A1.147,1.147,0,0,0-325.6,495.2Z" fill="#1f1f1f"/>
                <path id="Path_12" data-name="Path 12" d="M-411,410.9h17.8a1.115,1.115,0,0,0,.8-1.9l-8.9-9.5a1.151,1.151,0,0,0-1.7,0l-8.9,9.5A1.171,1.171,0,0,0-411,410.9Z" fill="#1f1f1f"/>
                <path id="Path_13" data-name="Path 13" d="M-478.5,475.7l-9.5,8.9a1.151,1.151,0,0,0,0,1.7l9.5,8.9a1.115,1.115,0,0,0,1.9-.8V476.6A1.146,1.146,0,0,0-478.5,475.7Z" fill="#1f1f1f"/>
                <path id="Path_14" data-name="Path 14" d="M-393.2,559.9H-411a1.115,1.115,0,0,0-.8,1.9l8.9,9.5a1.151,1.151,0,0,0,1.7,0l8.9-9.5A1.171,1.171,0,0,0-393.2,559.9Z" fill="#1f1f1f"/>
              </g>
            </g>
          </g>
        </g>
        <g id="Group_45" data-name="Group 45">
          <g id="Group_43" data-name="Group 43">
            <path id="Path_15" data-name="Path 15" d="M-8.4,375.7a3.761,3.761,0,0,1-4.1,3.8,3.761,3.761,0,0,1-4.1-3.8,3.815,3.815,0,0,1,4.1-3.8A3.761,3.761,0,0,1-8.4,375.7Zm-6.7,0a2.487,2.487,0,0,0,2.6,2.7,2.537,2.537,0,0,0,2.6-2.7,2.487,2.487,0,0,0-2.6-2.7A2.487,2.487,0,0,0-15.1,375.7Z" fill="#080808"/>
            <path id="Path_16" data-name="Path 16" d="M-7.1,372.1h3.8c2.4,0,2.9,1.3,2.9,2.2s-.5,2.2-2.9,2.2H-5.6v2.8H-7.1Zm1.5,3.4h2.2c.7,0,1.5-.3,1.5-1.2s-.7-1.2-1.5-1.2H-5.6Z" fill="#080808"/>
            <path id="Path_17" data-name="Path 17" d="M.1,372.1H7v1.1H4.3v6.1H2.8v-6.1H.1Z" fill="#080808"/>
            <path id="Path_18" data-name="Path 18" d="M8.1,372.1H9.6v7.2H8.1Z" fill="#080808"/>
            <path id="Path_19" data-name="Path 19" d="M19.1,375.7a3.761,3.761,0,0,1-4.1,3.8,3.761,3.761,0,0,1-4.1-3.8,3.815,3.815,0,0,1,4.1-3.8A3.761,3.761,0,0,1,19.1,375.7Zm-6.7,0a2.487,2.487,0,0,0,2.6,2.7,2.537,2.537,0,0,0,2.6-2.7A2.487,2.487,0,0,0,15,373,2.487,2.487,0,0,0,12.4,375.7Z" fill="#080808"/>
            <path id="Path_20" data-name="Path 20" d="M20.5,372.1H22l3.9,5.3h0v-5.3h1.4v7.2H25.7L21.8,374h0v5.3H20.4v-7.2Z" fill="#080808"/>
            <path id="Path_21" data-name="Path 21" d="M30.2,376.9c0,1.1,1,1.5,2.2,1.5,1.3,0,1.8-.6,1.8-1.1a.887.887,0,0,0-.7-.9c-.6-.2-1.4-.3-2.6-.6-1.5-.3-1.9-1.1-1.9-1.8,0-1.5,1.6-2.1,3.1-2.1,1.8,0,3.3.8,3.3,2.3H33.9c-.1-.9-.8-1.3-1.8-1.3-.7,0-1.6.2-1.6.9,0,.5.4.8,1,.9a21.453,21.453,0,0,1,2.5.6,2.073,2.073,0,0,1,1.7,1.8c0,1.6-1.7,2.3-3.4,2.3-2,0-3.5-.8-3.6-2.6h1.5v.1Z" fill="#080808"/>
          </g>
          <g id="Group_44" data-name="Group 44">
            <path id="Path_22" data-name="Path 22" d="M-333.8,376.9c0,1.1,1,1.5,2.2,1.5,1.3,0,1.8-.6,1.8-1.1a.887.887,0,0,0-.7-.9c-.6-.2-1.4-.3-2.6-.6-1.5-.3-1.9-1.1-1.9-1.8,0-1.5,1.6-2.1,3.1-2.1,1.8,0,3.3.8,3.3,2.3h-1.5c-.1-.9-.8-1.3-1.8-1.3-.7,0-1.6.2-1.6.9,0,.5.4.8,1,.9a21.453,21.453,0,0,1,2.5.6,2.073,2.073,0,0,1,1.7,1.8c0,1.6-1.7,2.3-3.4,2.3-2,0-3.5-.8-3.6-2.6h1.5Z" fill="#080808"/>
            <path id="Path_23" data-name="Path 23" d="M-327.1,372.1h1.5V375h3.9v-2.9h1.5v7.2h-1.5V376h-3.9v3.2h-1.5Z" fill="#080808"/>
            <path id="Path_24" data-name="Path 24" d="M-316.1,372.1h1.6l3.3,7.2h-1.6l-.8-1.9H-317l-.8,1.9h-1.5Zm-.5,4.3h2.6l-1.3-3.1h0Z" fill="#080808"/>
            <path id="Path_25" data-name="Path 25" d="M-310.4,372.1h4.1c1.9,0,2.8.7,2.8,1.9a1.769,1.769,0,0,1-1.4,1.8h0a1.441,1.441,0,0,1,1.3,1.5c0,.8.1,1.6.5,1.9h-1.6a1.978,1.978,0,0,1-.2-1.1c0-1.3-.3-1.9-1.7-1.9h-2.2v3h-1.5l-.1-7.1Zm1.5,3.2h2.5c1,0,1.5-.4,1.5-1.1,0-.9-.7-1.1-1.5-1.1h-2.4v2.2Z" fill="#080808"/>
            <path id="Path_26" data-name="Path 26" d="M-301.9,372.1h6.2v1.1h-4.7v1.9h4.3v1h-4.3v2.1h4.7v1.1h-6.2Z" fill="#080808"/>
          </g>
        </g>
        <g id="Group_50" data-name="Group 50">
          <g id="Group_47" data-name="Group 47">
            <g id="Group_46" data-name="Group 46">
              <path id="Path_27" data-name="Path 27" d="M141.2,351a2.144,2.144,0,0,0-1.1-1.9c-4.5-2.9-23.4-13.6-51.5-13.6-26.9,0-41.1,5.9-45.1,8a2.2,2.2,0,0,0-1.2,2s9.8-2.9,47.5-2.9S141.2,351,141.2,351Z"/>
              <path id="Path_28" data-name="Path 28" d="M141.1,357.9h0V351s-13.7-8.4-51.4-8.4c-37.8,0-47.5,2.9-47.5,2.9v11h0c7.7-1.3,21.2-2.6,44.1-2.6C114.8,354,132.2,356.3,141.1,357.9Z" fill="#add8e6"/>
            </g>
          </g>
          <g id="Group_49" data-name="Group 49">
            <g id="Group_48" data-name="Group 48">
              <path id="Path_29" data-name="Path 29" d="M-447.2,351a2.144,2.144,0,0,1,1.1-1.9c4.5-2.9,23.4-13.6,51.5-13.6,26.9,0,41.1,5.9,45.1,8a2.2,2.2,0,0,1,1.2,2s-9.8-2.9-47.5-2.9S-447.2,351-447.2,351Z"/>
              <path id="Path_30" data-name="Path 30" d="M-447.1,357.9h0V351s13.7-8.4,51.4-8.4c37.8,0,47.5,2.9,47.5,2.9v11h0c-7.7-1.3-21.2-2.6-44.1-2.6C-420.8,354-438.2,356.3-447.1,357.9Z" fill="#add8e6"/>
            </g>
          </g>
        </g>
        <g id="Group_60" data-name="Group 60">
          <g id="Group_59" data-name="Group 59">
            <g id="Group_52" data-name="Group 52">
              <g id="Group_51" data-name="Group 51">
                <path id="Path_31" data-name="Path 31" d="M153.9,512.1a26.3,26.3,0,1,1,26.3-26.3A26.332,26.332,0,0,1,153.9,512.1Z" fill="#2c2c2c"/>
                <path id="Path_32" data-name="Path 32" d="M153.9,460.6a25.3,25.3,0,1,1-25.3,25.3,25.329,25.329,0,0,1,25.3-25.3m0-2a27.3,27.3,0,1,0,27.3,27.3,27.335,27.335,0,0,0-27.3-27.3Z" fill="#222"/>
              </g>
              <path id="Path_33" data-name="Path 33" d="M153.9,467a18.9,18.9,0,1,0,18.9,18.9A18.949,18.949,0,0,0,153.9,467Zm0,34.9a16,16,0,1,1,16-16A15.983,15.983,0,0,1,153.9,501.9Z" fill="#f66"/>
            </g>
            <g id="Group_54" data-name="Group 54">
              <g id="Group_53" data-name="Group 53">
                <path id="Path_34" data-name="Path 34" d="M96.3,569.7a26.3,26.3,0,1,1,26.3-26.3A26.332,26.332,0,0,1,96.3,569.7Z" fill="#2c2c2c"/>
                <path id="Path_35" data-name="Path 35" d="M96.3,518.2A25.3,25.3,0,1,1,71,543.5a25.329,25.329,0,0,1,25.3-25.3m0-2a27.3,27.3,0,1,0,27.3,27.3,27.335,27.335,0,0,0-27.3-27.3Z" fill="#222"/>
              </g>
              <path id="Path_36" data-name="Path 36" d="M110.7,531.1l-2-2L96.3,541.5,84,529.1l-2,2,12.3,12.4L82,555.8l2,2.1,12.3-12.4,12.4,12.4,2-2.1L98.3,543.5Z" fill="#7cb2e8"/>
            </g>
            <g id="Group_56" data-name="Group 56">
              <g id="Group_55" data-name="Group 55">
                <path id="Path_37" data-name="Path 37" d="M38.8,512.1A26.3,26.3,0,1,1,65,485.9,26.332,26.332,0,0,1,38.8,512.1Z" fill="#2c2c2c"/>
                <path id="Path_38" data-name="Path 38" d="M38.7,460.6a25.3,25.3,0,1,1-25.3,25.3,25.329,25.329,0,0,1,25.3-25.3m0-2A27.3,27.3,0,1,0,66,485.9a27.335,27.335,0,0,0-27.3-27.3Z" fill="#222"/>
              </g>
              <path id="Path_39" data-name="Path 39" d="M50.3,471.5H24.5v28.6H53.1V471.5Zm0,25.9h-23v-23h23Z" fill="#ff69f8"/>
            </g>
            <g id="Group_58" data-name="Group 58">
              <g id="Group_57" data-name="Group 57">
                <path id="Path_40" data-name="Path 40" d="M96.3,454.6a26.3,26.3,0,1,1,26.3-26.3A26.332,26.332,0,0,1,96.3,454.6Z" fill="#2c2c2c"/>
                <path id="Path_41" data-name="Path 41" d="M96.3,403.1A25.3,25.3,0,1,1,71,428.4a25.329,25.329,0,0,1,25.3-25.3m0-2a27.3,27.3,0,1,0,27.3,27.3,27.335,27.335,0,0,0-27.3-27.3Z" fill="#222"/>
              </g>
              <path id="Path_42" data-name="Path 42" d="M112.3,436.3l-16-27.6-16,27.6-1.6,2.8h35.2Zm-16,0H83.6l12.7-21.9L109,436.3Z" fill="#40e2a0"/>
            </g>
          </g>
        </g>
        <g id="Group_63" data-name="Group 63">
          <g id="Group_61" data-name="Group 61">
            <circle id="Ellipse_8" data-name="Ellipse 8" cx="4.1" cy="4.1" r="4.1" transform="translate(-157.1 553.4)"/>
            <circle id="Ellipse_9" data-name="Ellipse 9" cx="4.1" cy="4.1" r="4.1" transform="translate(-157.1 532.5)"/>
            <circle id="Ellipse_10" data-name="Ellipse 10" cx="4.1" cy="4.1" r="4.1" transform="translate(-164 542.7)"/>
            <circle id="Ellipse_11" data-name="Ellipse 11" cx="4.1" cy="4.1" r="4.1" transform="translate(-178.7 542.7)"/>
            <circle id="Ellipse_12" data-name="Ellipse 12" cx="4.1" cy="4.1" r="4.1" transform="translate(-171.4 553.4)"/>
            <circle id="Ellipse_13" data-name="Ellipse 13" cx="4.1" cy="4.1" r="4.1" transform="translate(-171.4 532.5)"/>
            <circle id="Ellipse_14" data-name="Ellipse 14" cx="4.1" cy="4.1" r="4.1" transform="translate(-185.7 532.5)"/>
          </g>
          <g id="Group_62" data-name="Group 62">
            <circle id="Ellipse_15" data-name="Ellipse 15" cx="4.1" cy="4.1" r="4.1" transform="translate(-150.2 542.7)"/>
            <circle id="Ellipse_16" data-name="Ellipse 16" cx="4.1" cy="4.1" r="4.1" transform="translate(-135.5 542.7)"/>
            <circle id="Ellipse_17" data-name="Ellipse 17" cx="4.1" cy="4.1" r="4.1" transform="translate(-142.9 553.4)"/>
            <circle id="Ellipse_18" data-name="Ellipse 18" cx="4.1" cy="4.1" r="4.1" transform="translate(-142.9 532.5)"/>
            <circle id="Ellipse_19" data-name="Ellipse 19" cx="4.1" cy="4.1" r="4.1" transform="translate(-128.5 532.5)"/>
          </g>
        </g>
        <g id="Group_65" data-name="Group 65">
          <circle id="Ellipse_20" data-name="Ellipse 20" cx="20.2" cy="20.2" r="20.2" transform="translate(-173.2 582.9)" fill="#050505" stroke="#000" stroke-miterlimit="10" stroke-width="2"/>
          <g id="Group_64" data-name="Group 64">
            <path id="Path_43" data-name="Path 43" d="M-151.9,609.7V596.9a1.327,1.327,0,0,1,.3-1,.574.574,0,0,1,.7-.2c.6.2.9.7.9,1.7v6.9a4.551,4.551,0,0,0,2.1.5,2.767,2.767,0,0,0,1.6-.5c1-.7,1.5-1.9,1.5-3.7a6.492,6.492,0,0,0-1.2-4.3,8.79,8.79,0,0,0-4.1-2.6c-1.3-.4-2.5-.8-3.6-1.1s-2-.5-2.9-.7v12.2h0v2.7h0v1.7h0V611h0v1.5l4.7,1.5v-3.6h0Z" fill="#f2f2f2"/>
            <path id="Path_44" data-name="Path 44" d="M-157,608.7l-1.7.6-.9.4-1.6.3-1.5-.2c-.3-.2-.4-.4-.2-.6.1-.1.2-.1.3-.2s.3-.1.4-.2l1.1-.4,4.1-1.5v-2.7l-1.7.5-5.5,2-1,.4c-1.5.6-2.2,1.2-2.2,1.8.1.8,1,1.5,2.7,1.9a15.528,15.528,0,0,0,2.1.4,15.487,15.487,0,0,0,2.2.1,20.2,20.2,0,0,0,3.3-.3l.1-2.3Z" fill="#f2f2f2"/>
            <path id="Path_45" data-name="Path 45" d="M-141.2,606.4a12.883,12.883,0,0,0-2.5-.6,10.478,10.478,0,0,0-2.5-.1,26.61,26.61,0,0,0-2.8.3,15.257,15.257,0,0,0-2.6.8v2.8l3.9-1.4,1.6-.5,1.1-.3h1.4c.3.1.6.2.7.4,0,.2-.2.4-.8.6l-1.4.5-6.5,2.4V614l3.5-1.3,6.4-2.3.7-.4c1.5-.5,2.2-1.2,2.2-1.9C-138.8,607.5-139.6,606.9-141.2,606.4Z" fill="#f2f2f2"/>
          </g>
        </g>
        <path id="Path_46" data-name="Path 46" d="M-450.8,785.6c-40.5-2.8-75.8-20.3-87.3-30.5s-17.5-31.5-17.5-31.5c-.4,15-.4,26.3-.4,26.3s4.5,53.4,36.2,74.9,56.7,14,56.7,14,33.1-8.2,57.8-41.9a192.083,192.083,0,0,0,14.1-23.8C-391.3,773-410.4,788.3-450.8,785.6Z" fill="#add8e6"/>
        <path id="Path_47" data-name="Path 47" d="M144.8,785.6c40.5-2.8,75.8-20.3,87.3-30.5s17.5-31.5,17.5-31.5c.4,15,.4,26.3.4,26.3s-4.5,53.4-36.2,74.9-56.7,14-56.7,14-33.1-8.2-57.8-41.9a192.08,192.08,0,0,1-14.1-23.8C85.3,773,104.4,788.3,144.8,785.6Z" fill="#add8e6"/>
        <g id="Group_77" data-name="Group 77">
          <g id="Group_66" data-name="Group 66">
            <path id="Path_48" data-name="Path 48" d="M-450.8,785.6c-40.5-2.8-75.8-20.3-87.3-30.5s-17.5-31.5-17.5-31.5c-.4,15-.4,26.3-.4,26.3s4.5,53.4,36.2,74.9,56.7,14,56.7,14,33.1-8.2,57.8-41.9a192.083,192.083,0,0,0,14.1-23.8C-391.3,773-410.4,788.3-450.8,785.6Z" fill="#e6e6e6" opacity="0.1"/>
            <path id="Path_49" data-name="Path 49" d="M-450.8,785.6c-40.5-2.8-75.8-20.3-87.3-30.5s-17.5-31.5-17.5-31.5c-.4,15-.4,26.3-.4,26.3s4.5,53.4,36.2,74.9,56.7,14,56.7,14,33.1-8.2,57.8-41.9a192.083,192.083,0,0,0,14.1-23.8C-391.3,773-410.4,788.3-450.8,785.6Z" opacity="0.08"/>
            <path id="Path_50" data-name="Path 50" d="M-466,833.6c-12.5,1.8-31.3-2-45.1-7.7-13.6-5.7-24-16.4-24-16.4a63.118,63.118,0,0,0,15.3,15.2c31.7,21.5,56.7,14,56.7,14s11.7-2.9,26.3-12.3A168.532,168.532,0,0,1-466,833.6Z" opacity="0.22"/>
          </g>
          <g id="Group_67" data-name="Group 67">
            <path id="Path_51" data-name="Path 51" d="M144.8,785.6c40.5-2.8,75.8-20.3,87.3-30.5s17.5-31.5,17.5-31.5c.4,15,.4,26.3.4,26.3s-4.5,53.4-36.2,74.9-56.7,14-56.7,14-33.1-8.2-57.8-41.9a192.08,192.08,0,0,1-14.1-23.8C85.3,773,104.4,788.3,144.8,785.6Z" fill="#e6e6e6" opacity="0.1"/>
            <path id="Path_52" data-name="Path 52" d="M144.8,785.6c40.5-2.8,75.8-20.3,87.3-30.5s17.5-31.5,17.5-31.5c.4,15,.4,26.3.4,26.3s-4.5,53.4-36.2,74.9-56.7,14-56.7,14-33.1-8.2-57.8-41.9a192.08,192.08,0,0,1-14.1-23.8C85.3,773,104.4,788.3,144.8,785.6Z" opacity="0.08"/>
            <path id="Path_53" data-name="Path 53" d="M160,833.6c12.5,1.8,31.3-2,45.1-7.7,13.6-5.7,24-16.4,24-16.4a63.118,63.118,0,0,1-15.3,15.2c-31.7,21.5-56.7,14-56.7,14s-11.7-2.9-26.3-12.3A168.531,168.531,0,0,0,160,833.6Z" opacity="0.22"/>
          </g>
          <g id="Group_69" data-name="Group 69">
            <g id="Group_68" data-name="Group 68">
              <path id="Path_54" data-name="Path 54" d="M-315.5,384.6A12.5,12.5,0,0,1-303,397.1v18.3a12.5,12.5,0,0,1-12.5,12.5A12.5,12.5,0,0,1-328,415.4V397.1a12.5,12.5,0,0,1,12.5-12.5m0-1.7a14.255,14.255,0,0,0-14.2,14.2v18.3a14.255,14.255,0,0,0,14.2,14.2,14.255,14.255,0,0,0,14.2-14.2V397.1a14.19,14.19,0,0,0-14.2-14.2Z"/>
              <path id="Path_55" data-name="Path 55" d="M-315.5,384.6A12.5,12.5,0,0,0-328,397.1v18.3a12.5,12.5,0,0,0,12.5,12.5A12.5,12.5,0,0,0-303,415.4V397.1A12.5,12.5,0,0,0-315.5,384.6Z" fill="#add8e6"/>
            </g>
          </g>
          <g id="Group_71" data-name="Group 71">
            <g id="Group_70" data-name="Group 70">
              <path id="Path_56" data-name="Path 56" d="M9.5,384.6A12.5,12.5,0,0,1,22,397.1v18.3A12.5,12.5,0,0,1,9.5,427.9h0A12.5,12.5,0,0,1-3,415.4V397.1A12.5,12.5,0,0,1,9.5,384.6h0m0-1.7A14.255,14.255,0,0,0-4.7,397.1v18.3A14.255,14.255,0,0,0,9.5,429.6a14.255,14.255,0,0,0,14.2-14.2V397.1A14.19,14.19,0,0,0,9.5,382.9Z"/>
              <path id="Path_57" data-name="Path 57" d="M9.5,384.6A12.5,12.5,0,0,0-3,397.1v18.3a12.5,12.5,0,0,0,25,0V397.1A12.5,12.5,0,0,0,9.5,384.6Z" fill="#add8e6"/>
            </g>
          </g>
          <g id="Group_76" data-name="Group 76">
            <g id="Group_72" data-name="Group 72">
              <path id="Path_58" data-name="Path 58" d="M-414.8,488.3c1.4-2,1.2-2.9,1.2-2.9s.2-.9-1.2-2.9-15-13.6-15.7-14-28.5-2.2-31.4,1.3-2.6,15.6-2.6,15.6-.3,12.1,2.6,15.6,30.7,1.7,31.4,1.3S-416.2,490.3-414.8,488.3Z" fill="#add8e6"/>
              <path id="Path_59" data-name="Path 59" d="M-414.8,488.3c1.4-2,1.2-2.9,1.2-2.9s.2-.9-1.2-2.9c-.9-1.3-6.9-6.6-11.2-10.3a27.841,27.841,0,0,0-3.4,13.2,26.733,26.733,0,0,0,3.4,13.2C-421.7,494.9-415.7,489.6-414.8,488.3Z" opacity="0.25"/>
            </g>
            <g id="Group_73" data-name="Group 73">
              <path id="Path_60" data-name="Path 60" d="M-405,472.7c2,1.4,2.9,1.2,2.9,1.2s.9.2,2.9-1.2,13.6-15,14-15.7,2.2-28.5-1.3-31.4-15.6-2.6-15.6-2.6-12.1-.3-15.6,2.6-1.7,30.7-1.3,31.4C-418.5,457.7-407,471.3-405,472.7Z" fill="#add8e6"/>
              <path id="Path_61" data-name="Path 61" d="M-405,472.7c2,1.4,2.9,1.2,2.9,1.2s.9.2,2.9-1.2c1.3-.9,6.6-6.9,10.3-11.2a27.841,27.841,0,0,0-13.2-3.4,26.733,26.733,0,0,0-13.2,3.4C-411.5,465.8-406.3,471.8-405,472.7Z" opacity="0.25"/>
            </g>
            <g id="Group_74" data-name="Group 74">
              <path id="Path_62" data-name="Path 62" d="M-342.3,469.9c-2.9-3.5-30.7-1.7-31.4-1.3s-14.3,12-15.7,14-1.2,2.9-1.2,2.9-.2.9,1.2,2.9,15,13.6,15.7,14,28.5,2.2,31.4-1.3,2.6-15.6,2.6-15.6S-339.4,473.4-342.3,469.9Z" fill="#add8e6"/>
              <path id="Path_63" data-name="Path 63" d="M-378.1,472.3c-4.3,3.7-10.3,9-11.2,10.3-1.4,2-1.2,2.9-1.2,2.9s-.2.9,1.2,2.9c.9,1.3,6.9,6.6,11.2,10.3a27.841,27.841,0,0,0,3.4-13.2A27.84,27.84,0,0,0-378.1,472.3Z" opacity="0.25"/>
            </g>
            <g id="Group_75" data-name="Group 75">
              <path id="Path_64" data-name="Path 64" d="M-399.2,498.2c-2-1.4-2.9-1.2-2.9-1.2s-.9-.2-2.9,1.2-13.6,15-14,15.7-2.2,28.5,1.3,31.4,15.6,2.6,15.6,2.6,12.1.3,15.6-2.6,1.7-30.7,1.3-31.4C-385.6,513.1-397.2,499.6-399.2,498.2Z" fill="#add8e6"/>
              <path id="Path_65" data-name="Path 65" d="M-399.2,498.2c-2-1.4-2.9-1.2-2.9-1.2s-.9-.2-2.9,1.2c-1.3.9-6.6,6.9-10.3,11.2a27.841,27.841,0,0,0,13.2,3.4,26.733,26.733,0,0,0,13.2-3.4C-392.6,505.1-397.9,499.1-399.2,498.2Z" opacity="0.25"/>
            </g>
          </g>
        </g>
        <path id="Path_66" data-name="Path 66" d="M-119.4,662.1h-67.9c-2.8,0-4.6.6-4.6-2.2h0a5.015,5.015,0,0,1,5-5H-119a5.015,5.015,0,0,1,5,5h0C-113.9,662.6-116.6,662.1-119.4,662.1Z" fill="#0b0b0f"/>
        <path id="Path_67" data-name="Path 67" d="M-147.7,659.9h-36.5a.9.9,0,0,1-.9-.9h0a2.006,2.006,0,0,1,2-2h34.2a2.006,2.006,0,0,1,2,2h0A.765.765,0,0,1-147.7,659.9Z"/>
        <path id="Path_68" data-name="Path 68" d="M-125.5,660.7h-4.2a1.752,1.752,0,0,1-1.7-1.7h0a2.8,2.8,0,0,1,2.8-2.8h1.9a2.8,2.8,0,0,1,2.8,2.8h0A1.5,1.5,0,0,1-125.5,660.7Z"/>
        <g id="Group_80" data-name="Group 80">
          <path id="Path_69" data-name="Path 69" d="M-21.2,369.1a6.568,6.568,0,0,0-6.5-5.6H-278.3a6.481,6.481,0,0,0-6.5,5.6,14.768,14.768,0,0,0-.1,2.1V498.6a16.09,16.09,0,0,0,16.1,16.1H-37.2a16.09,16.09,0,0,0,16.1-16.1V371.2A7.412,7.412,0,0,0-21.2,369.1Z"/>
          <g id="Group_79" data-name="Group 79">
            <path id="Path_70" data-name="Path 70" d="M-25.6,365.4a1.9,1.9,0,0,0-1.9-1.9H-278.6a1.9,1.9,0,0,0-1.9,1.9V494.6a15.62,15.62,0,0,0,15.6,15.6H-41.1a15.62,15.62,0,0,0,15.6-15.6V371.5Z" fill="#add8e6"/>
            <g id="Group_78" data-name="Group 78" opacity="0.2">
              <path id="Path_71" data-name="Path 71" d="M-280.5,494.6a15.62,15.62,0,0,0,15.6,15.6H-41.1a15.62,15.62,0,0,0,15.6-15.6V388.1H-280.4V494.6Z"/>
            </g>
          </g>
        </g>
      </g>
      <g id="Group_92" data-name="Group 92">
        <g id="Group_86" data-name="Group 86">
          <g id="Group_85" data-name="Group 85">
            <g id="Group_82" data-name="Group 82">
              <path id="Path_72" data-name="Path 72" d="M141.1,331.9s-32.7-3.2-50.6-3.2-48.3,2.4-48.3,2.4,3.1-44.7,4.8-52c1.6-7.3,7.7-21.3,16.9-27.9s12-10.1,22.8-10.1,25.4,6.4,34.6,21.4C130.4,277.5,141.1,331.9,141.1,331.9Z" fill="#add8e6"/>
              <path id="Path_73" data-name="Path 73" d="M42.7,324.3s26.1-4.4,49-4.4c22.8,0,47.9,4.4,47.9,4.4,1,4.7,1.6,7.6,1.6,7.6s-32.7-3.2-50.6-3.2-48.3,2.4-48.3,2.4S42.3,328.4,42.7,324.3Z"/>
            </g>
            <g id="Group_84" data-name="Group 84" opacity="0.08">
              <g id="Group_83" data-name="Group 83">
                <path id="Path_74" data-name="Path 74" d="M92.7,306.8c-2.1,1.7-3.2,2.6-3.2,2.6a6.705,6.705,0,0,0-2,4.5h9.8v-2.6H91a6.705,6.705,0,0,1,2.1-1.9,12.467,12.467,0,0,0,2.7-2.1,4.771,4.771,0,0,0,1.3-3.3,4.223,4.223,0,0,0-1.4-3.3,5.13,5.13,0,0,0-3.5-1.2c-3.1,0-4.7,1.7-4.7,5h2.7q0-2.7,2.1-2.7a1.827,1.827,0,0,1,2,2.1A3.5,3.5,0,0,1,92.7,306.8Z" fill="#fff"/>
              </g>
              <path id="Path_75" data-name="Path 75" d="M75.1,308.3h3c1.5,0,2.3.6,2.4,1.9.1,1.2.2,2.5.3,3.8h3.3v-.4c-.5-.2-.7-.7-.7-1.5a2.814,2.814,0,0,1,.1-.8v-.7a3.564,3.564,0,0,0-1.8-3.5,3.25,3.25,0,0,0,2.2-3.4,3.542,3.542,0,0,0-1.3-3,4.722,4.722,0,0,0-3.2-1H72.1V314h3Zm0-6.3h3.7c1.4,0,2.1.6,2.1,1.9s-.8,1.9-2.3,1.9H75.1V302Z" fill="#fff"/>
            </g>
          </g>
        </g>
        <g id="Group_91" data-name="Group 91">
          <g id="Group_90" data-name="Group 90">
            <g id="Group_87" data-name="Group 87">
              <path id="Path_76" data-name="Path 76" d="M-447.2,331.9s32.7-3.2,50.6-3.2,48.3,2.4,48.3,2.4-3.1-44.7-4.8-52c-1.6-7.3-7.7-21.3-16.9-27.9-9.2-6.7-12-10.1-22.8-10.1s-25.4,6.4-34.6,21.4C-436.5,277.5-447.2,331.9-447.2,331.9Z" fill="#add8e6"/>
              <path id="Path_77" data-name="Path 77" d="M-348.8,324.3s-26.1-4.4-49-4.4c-22.8,0-47.9,4.4-47.9,4.4-1,4.7-1.6,7.6-1.6,7.6s32.7-3.2,50.6-3.2,48.3,2.4,48.3,2.4S-348.4,328.4-348.8,324.3Z"/>
            </g>
            <g id="Group_89" data-name="Group 89" opacity="0.08">
              <g id="Group_88" data-name="Group 88">
                <path id="Path_78" data-name="Path 78" d="M-382.7,306.8c-2.1,1.7-3.2,2.6-3.2,2.6a6.705,6.705,0,0,0-2,4.5h9.8v-2.6h-6.2a6.705,6.705,0,0,1,2.1-1.9,12.468,12.468,0,0,0,2.7-2.1,4.771,4.771,0,0,0,1.3-3.3,4.223,4.223,0,0,0-1.4-3.3,5.13,5.13,0,0,0-3.5-1.2c-3.1,0-4.7,1.7-4.7,5h2.7q0-2.7,2.1-2.7a1.827,1.827,0,0,1,2,2.1A3.631,3.631,0,0,1-382.7,306.8Z" fill="#fff"/>
              </g>
              <path id="Path_79" data-name="Path 79" d="M-391.2,311.2h-7.1V299.6h-3v14.3h10.1Z" fill="#fff"/>
            </g>
          </g>
        </g>
      </g>
    </g>
    <g id="Group_3" data-name="Group 3" transform="translate(955.938 487.502)">
      <g id="Group_20" data-name="Group 20" transform="translate(0 72.689)">
        <g id="Group_17" data-name="Group 17" transform="translate(8.402 14.369)">
          <g id="Group_14" data-name="Group 14" transform="translate(-2.701 7.962)">
            <ellipse id="Ellipse_6-2" data-name="Ellipse 6" cx="18.7" cy="10.912" rx="18.7" ry="10.912" transform="translate(8.776 47.455)" fill="#fff"/>
            <g id="Group_13" data-name="Group 13">
              <g id="Group_12" data-name="Group 12">
                <g id="Group_10" data-name="Group 10" transform="translate(31.42)">
                  <path id="Ellipse_3-2" data-name="Ellipse 3" d="M7.14-.161c3.941-.089,6.887,10.763,6.579,24.24S9.967,48.552,6.026,48.642-.861,37.879-.554,24.4,3.2-.071,7.14-.161Z" transform="matrix(0.766, 0.643, -0.643, 0.766, 32.228, 0)" fill="#fff"/>
                  <path id="Rectangle_5" data-name="Rectangle 5" d="M0,0,12.929-.289,12.24,30.028l-12.924.291Z" transform="translate(19.618 16.391) rotate(39)" fill="#fff"/>
                </g>
                <g id="Group_11" data-name="Group 11" transform="translate(0 5.913)">
                  <path id="Ellipse_2-2" data-name="Ellipse 2" d="M6.119.137C9.5.213,12.443,9.172,12.692,20.149S10.4,39.961,7.021,39.885.7,30.85.448,19.873,2.738.061,6.119.137Z" transform="matrix(0.777, -0.629, 0.629, 0.777, 0, 7.489)" fill="#fff"/>
                  <path id="Rectangle_6" data-name="Rectangle 6" d="M0,0,12.253.273l.683,30.293L.683,30.293Z" transform="translate(10.839 19.947) rotate(-38)" fill="#fff"/>
                </g>
                <ellipse id="Ellipse_4-2" data-name="Ellipse 4" cx="18.354" cy="13.227" rx="18.354" ry="13.227" transform="translate(12.931 39.519)" fill="#fff"/>
              </g>
              <ellipse id="Ellipse_5-2" data-name="Ellipse 5" cx="2.77" cy="2.645" rx="2.77" ry="2.645" transform="translate(28.861 48.116)"/>
            </g>
          </g>
          <path id="Path_6-2" data-name="Path 6" d="M-1727.019-16883.348l.456-.18-.989.4s-5.8,13.172.989,12.293,28.593-14.756,28.593-14.756-5.264-3.029-5.43-7.5,1.253-6.783,2.005-7.344,1-1.83,4.928-1.752,15.249,2.125,16.534,7.031-1.835,10.691-1.835,10.691,3.3,17.174,0,19.979-2.2,1.4-2.2,1.4,9.727,3.154,4.038,6.48-15.233,4.031-15.233,4.031h-31.854s-10.909-.527-9.991-5.258a5.318,5.318,0,0,1,5.323-4.555s-3.117-9.289-3.3-25.762" transform="translate(1737.554 16989.885)" fill="#fff"/>
          <path id="Path_8-2" data-name="Path 8" d="M-1668.62-16934.324c8.075-28.842,9.727-27.965,9.727-27.965s3.671,8.588,0,15.771a43.368,43.368,0,0,1-9.727,12.193Z" transform="translate(1716.514 17010.238)" fill="#fff"/>
          <path id="Path_9-2" data-name="Path 9" d="M-1734.468-16900.26c.358.176,7.54,4.807,7.885,4.916s11.7,2.85,13.542-3.287-3.214-10.629-3.214-10.629,7.605-12.273,11.622-14.795,5.84-3.375,10.05-2.465c1.566.34-.327-1.889,0-4.084a33.031,33.031,0,0,1,2.377-7.262s-2.988,5.574-6.179,8.363-10.8,3.957-16.026,3.633-11.68-2.918-11.68-2.918-2.988-1.818-4.074-3.7a17.87,17.87,0,0,1-1.562-3.5l1.562,4.215,3.666,2.984,3.463,2.268s3.324,1.426,0,5.059-7.81,5.963-8.964,8.492c-.233.51-3.693,4.945-3.532,6.291a26.07,26.07,0,0,0,0,3.887,6.945,6.945,0,0,0,1.065,2.529Z" transform="translate(1737.114 17001.967)" fill="#fff"/>
          <path id="Path_10-2" data-name="Path 10" d="M11.087,29.34C3.132-.888,1.56.016,1.56.016s-3.441,8.954.128,16.5a45.926,45.926,0,0,0,9.4,12.829Z" transform="translate(82.866 74.347) rotate(100)" fill="#fff"/>
          <path id="Path_11-2" data-name="Path 11" d="M-1665.5-16929.107c19.693-23.1,28.346-21.676,28.346-21.676h6.564l-2.685,4.133s-8.8,7.264-16.113,10.684S-1665.5-16929.107-1665.5-16929.107Z" transform="translate(1715.554 17006.352)" fill="#fff"/>
          <ellipse id="Ellipse_13-2" data-name="Ellipse 13" cx="2.77" cy="2.645" rx="2.77" ry="2.645" transform="translate(26.16 56.078)"/>
        </g>
      </g>
      <g id="Group_25" data-name="Group 25" transform="translate(31.442 138.555)">
        <g id="Group_24" data-name="Group 24">
          <g id="Ellipse_7-2" data-name="Ellipse 7" fill="#9ecdd1" stroke="gold" stroke-width="1">
            <ellipse cx="5.66" cy="5.658" rx="5.66" ry="5.658" stroke="none"/>
            <ellipse cx="5.66" cy="5.658" rx="5.16" ry="5.158" fill="none"/>
          </g>
          <g id="Group_22" data-name="Group 22" transform="translate(10.613 4.951)">
            <g id="Ellipse_8-2" data-name="Ellipse 8" transform="translate(0)" fill="#fff" stroke="#707070" stroke-width="1">
              <ellipse cx="1.061" cy="1.061" rx="1.061" ry="1.061" stroke="none"/>
              <ellipse cx="1.061" cy="1.061" rx="0.561" ry="0.561" fill="none"/>
            </g>
            <g id="Ellipse_9-2" data-name="Ellipse 9" transform="translate(0 2.829)" fill="#fff" stroke="#707070" stroke-width="1">
              <ellipse cx="1.061" cy="1.061" rx="1.061" ry="1.061" stroke="none"/>
              <ellipse cx="1.061" cy="1.061" rx="0.561" ry="0.561" fill="none"/>
            </g>
            <g id="Ellipse_10-2" data-name="Ellipse 10" transform="translate(0 5.658)" fill="#fff" stroke="#707070" stroke-width="1">
              <ellipse cx="1.061" cy="1.061" rx="1.061" ry="1.061" stroke="none"/>
              <ellipse cx="1.061" cy="1.061" rx="0.561" ry="0.561" fill="none"/>
            </g>
            <line id="Line_5" data-name="Line 5" y1="1.415" transform="translate(1.061 4.598)" fill="none" stroke="#707070" stroke-width="1"/>
            <line id="Line_6" data-name="Line 6" y1="1.415" transform="translate(1.061 1.768)" fill="none" stroke="#707070" stroke-width="1"/>
          </g>
        </g>
        <ellipse id="Ellipse_14-2" data-name="Ellipse 14" cx="2.83" cy="2.829" rx="2.83" ry="2.829" transform="translate(3.035 2.931)"/>
      </g>
    </g>
  </g>
</svg>
